<?xml version="1.0" standalone="no"?>
<!DOCTYPE svg PUBLIC "-//W3C//DTD SVG 20010904//EN"
 "http://www.w3.org/TR/2001/REC-SVG-20010904/DTD/svg10.dtd">
<svg version="1.0" xmlns="http://www.w3.org/2000/svg"
 width="190.000000pt" height="192.000000pt" viewBox="0 0 190.000000 192.000000"
 preserveAspectRatio="xMidYMid meet">

<g transform="translate(0.000000,192.000000) scale(0.100000,-0.100000)"
fill="#000000" stroke="none">
<path d="M273 1861 c-156 -57 -252 -189 -261 -356 -7 -138 36 -243 137 -338
78 -73 163 -107 309 -122 l64 -7 -150 -152 c-82 -83 -156 -165 -165 -181 -40
-80 -29 -165 30 -235 l35 -40 -24 -20 c-12 -11 -48 -31 -78 -45 -30 -15 -66
-32 -79 -38 -13 -7 -35 -27 -50 -46 -35 -46 -37 -144 -5 -188 36 -48 82 -73
136 -73 82 0 125 33 169 129 16 36 41 80 55 98 l25 33 40 -34 c69 -58 154 -69
234 -29 16 8 119 103 227 211 171 170 199 194 213 182 14 -12 14 -15 0 -30
-28 -31 -17 -55 64 -133 43 -42 83 -77 89 -77 14 0 42 28 42 42 0 5 -28 39
-62 74 l-62 65 69 69 70 70 34 -35 35 -35 -33 -34 c-22 -23 -32 -41 -29 -57 5
-36 38 -35 73 1 16 16 34 30 40 30 6 0 84 -73 173 -163 157 -158 162 -165 162
-205 0 -56 -31 -91 -87 -99 -41 -5 -43 -4 -122 71 -44 42 -86 76 -93 76 -18 0
-38 -20 -38 -38 0 -21 120 -141 162 -163 116 -59 248 19 248 148 0 30 -5 64
-11 76 -14 27 -500 517 -513 517 -5 0 -18 -7 -28 -16 -15 -14 -20 -15 -33 -4
-14 11 11 40 188 219 166 167 207 214 216 246 23 82 9 151 -43 211 l-34 40 41
27 c23 15 71 42 107 60 84 41 110 79 110 156 0 102 -59 161 -161 161 -81 0
-114 -26 -164 -126 -22 -44 -49 -92 -60 -106 l-21 -25 -38 33 c-65 56 -148 69
-225 34 -28 -13 -96 -72 -191 -166 -81 -80 -150 -142 -153 -137 -3 4 -8 37
-12 73 -21 184 -106 314 -253 386 -49 24 -71 28 -162 31 -84 2 -116 -1 -157
-16z m287 -81 c94 -48 157 -118 188 -209 13 -38 45 -241 39 -247 -2 -2 -30 39
-63 92 -101 164 -212 275 -342 341 -89 45 -80 54 48 50 65 -3 96 -9 130 -27z
m1214 4 c28 -29 35 -79 15 -115 -6 -11 -40 -34 -76 -50 -35 -16 -85 -43 -109
-61 l-45 -32 -20 21 -21 21 30 44 c17 24 44 72 61 107 36 75 54 90 102 91 26
0 44 -7 63 -26z m-1472 -71 c126 -48 257 -169 353 -325 32 -51 64 -102 72
-114 11 -18 11 -23 0 -32 -10 -9 -68 44 -262 238 -258 258 -269 275 -163 233z
m117 -287 c219 -219 258 -266 220 -266 -14 0 -188 108 -234 145 -99 80 -168
163 -208 246 -28 61 -43 119 -30 119 4 0 118 -110 252 -244z m914 200 c18 -7
89 -72 158 -142 135 -138 150 -164 130 -226 -8 -23 -156 -178 -484 -506 -514
-514 -502 -504 -582 -476 -41 14 -254 216 -281 266 -8 15 -14 48 -14 75 l0 48
473 473 c259 261 486 480 502 488 39 17 58 17 98 0z m-1209 -92 c26 -63 121
-189 187 -247 30 -27 102 -78 161 -115 59 -36 106 -67 105 -69 -2 -1 -58 6
-126 16 -142 22 -211 52 -272 118 -47 51 -86 129 -95 190 -7 46 3 153 14 153
4 0 16 -21 26 -46z m1110 -830 c6 -17 -19 -54 -36 -54 -18 0 -20 31 -3 50 22
24 31 25 39 4z m-898 -413 c-19 -25 -47 -76 -64 -114 -31 -69 -54 -87 -106
-87 -33 0 -73 35 -81 71 -13 57 10 87 99 129 45 22 95 50 111 64 l30 24 22
-20 22 -21 -33 -46z"/>
<path d="M1690 1745 c-20 -25 -8 -50 25 -50 21 0 31 5 33 18 4 21 -14 47 -33
47 -7 0 -18 -7 -25 -15z"/>
<path d="M917 852 c-59 -60 -107 -114 -107 -120 0 -6 7 -18 16 -27 15 -15 18
-14 42 1 14 9 68 60 119 112 99 101 114 134 63 140 -21 2 -45 -18 -133 -106z"/>
<path d="M703 634 c-8 -22 10 -49 32 -49 10 0 22 7 28 16 15 24 1 49 -28 49
-15 0 -28 -7 -32 -16z"/>
<path d="M150 205 c-19 -23 -8 -50 22 -53 19 -2 28 2 33 18 12 39 -29 66 -55
35z"/>
<path d="M1377 324 c-15 -16 -7 -53 14 -59 30 -10 58 19 43 43 -12 18 -45 28
-57 16z"/>
</g>
</svg>
